<?xml version="1.0" encoding="UTF-8" standalone="no"?>
<svg width="74px" height="72px" viewBox="0 0 74 72" version="1.1" xmlns="http://www.w3.org/2000/svg" xmlns:xlink="http://www.w3.org/1999/xlink" xmlns:sketch="http://www.bohemiancoding.com/sketch/ns">
    <!-- Generator: Sketch 3.3.3 (12072) - http://www.bohemiancoding.com/sketch -->
    <title>Imported Layers Copy</title>
    <desc>Created with Sketch.</desc>
    <defs></defs>
    <g id="Page-1" stroke="none" stroke-width="1" fill="none" fill-rule="evenodd" sketch:type="MSPage">
        <g id="Imported-Layers-Copy" sketch:type="MSLayerGroup">
            <path d="M64.3059783,42.559 C55.9108696,43.2662889 33.3815217,44.7035778 33.3815217,44.7035778 C33.3815217,44.7035778 34.1298913,42.7731333 34.1445652,40.4598444 C34.1641304,37.1748444 34.061413,12.6403556 34.061413,12.6403556 C34.061413,12.6403556 33.7353261,9.34886667 35.2891304,6.40128889 L20.0347826,6.40128889 C20.0347826,6.40128889 4.58641304,6.44833333 3.67826087,19.9403556 C2.76032609,33.5572889 0,71.54 0,71.54 C0,71.54 3.03913043,70.1205556 5.64456522,69.5122222 C6.06847826,69.4132667 6.9423913,69.3240444 9.04402174,69.2883556 C19.1983696,69.1115333 47.7211957,69.3370222 50.9592391,69.2997111 C53.7521739,69.2656444 67.3125,69.1099111 68.3331522,53.3370444 C68.5532609,49.9449778 68.7815217,45.5211778 69.0032609,40.7080444 C67.8505435,41.6781333 66.3293478,42.3886667 64.3059783,42.559" id="Fill-1" fill="#80C242" sketch:type="MSShapeGroup"></path>
            <path d="M73.2065217,3.89333333 C73.2,7.19131111 73.4771739,22.8035778 73.1315217,26.2978444 C72.9978261,27.6345556 73.1168478,34.1607556 66.4907609,34.5874 C59.6543478,35.0302667 41.5972826,36.3150667 41.5972826,36.3150667 C41.5972826,36.3150667 42.0815217,35.4812444 42.1451087,33.1679556 C42.213587,30.7492222 42.1451087,10.5071333 42.1451087,10.5071333 C42.1451087,10.5071333 41.2793478,2.43495556 50.1146739,1.82013333 C60.0538043,1.13068889 73.9059783,0 73.9059783,0 C73.9059783,0 73.2081522,2.70586667 73.2065217,3.89333333" id="Fill-2" fill="#00A44D" sketch:type="MSShapeGroup"></path>
        </g>
    </g>
</svg>