<?xml version="1.0" encoding="utf-8"?>
<!-- Generator: Adobe Illustrator 19.1.0, SVG Export Plug-In . SVG Version: 6.00 Build 0)  -->
<svg version="1.1" id="Layer_1" xmlns="http://www.w3.org/2000/svg" xmlns:xlink="http://www.w3.org/1999/xlink" x="0px" y="0px"
	 viewBox="0 0 402.7 65.4" style="enable-background:new 0 0 402.7 65.4;" xml:space="preserve">
<style type="text/css">
	.st0{fill:#FFFFFF;}
	.st1{fill:#80C242;}
	.st2{fill:#00A44D;}
</style>
<g>
	<g>
		<g>
			<path class="st0" d="M61.9,25.1c0,8.2,4.3,11.9,10.2,11.9c2.7,0,5.4-0.6,7.6-2.3l1.8,4.8c-3.3,2.3-7,3.3-11.8,3.3
				c-8.9,0-15.9-5.8-15.9-16.9c0-9.3,7.3-16.6,17.3-16.6c4.1,0,7.1,0.6,10,1.7l-1.9,5.2c-2.1-1-4.7-1.6-7.4-1.6
				C65.6,14.6,61.9,18.7,61.9,25.1z"/>
			<path class="st0" d="M103.8,9.2c1.7,0,2.7,0.1,3.7,0.6l-2.4,8.1c-1.2-0.4-2.1-0.6-3.5-0.6c-2.5,0-4.8,1.2-6.7,4.1
				c-0.2,2.3-0.3,5.2-0.3,9c0,3.4,0.1,7.4,0.3,11.5h-8.3c0.3-6,0.4-9.8,0.4-15.9c0-6.6-0.1-9.9-0.4-16.2h7.1l0.9,6.7
				C96.9,11.6,100.6,9.2,103.8,9.2z"/>
			<path class="st0" d="M125.9,9.2c10.4,0,17.1,6.8,17.1,16.4c0,9.5-7,17.1-17.1,17.1c-10.5,0-16.9-6.7-16.9-16.3
				C109,16.8,115.8,9.2,125.9,9.2z M125.9,14.3c-5.6,0-8.9,4.8-8.9,11.7c0,6.8,3.2,11.7,8.9,11.7c5.7,0,8.9-4.8,8.9-11.7
				C134.8,19.1,131.5,14.3,125.9,14.3z"/>
			<path class="st0" d="M149.5,56.4c0.3-9.7,0.4-14.4,0.4-24.4c0-9.2-0.1-12.9-0.4-22h7.4l0.7,5.2c2.5-4.1,6.6-6,10.8-6
				c6.8,0,12.6,5.2,12.6,15.2c0,10.5-7,18.3-18.2,18.3c-2.1,0-4.1-0.3-5.5-0.5c0,4.3,0.2,9.4,0.5,14.2H149.5z M165.1,15.3
				c-3.4,0-5.8,1.6-7.5,4.5c-0.1,2-0.2,4.7-0.2,7.2c0,3.9,0.1,8.2,0.2,9.8c1.7,0.8,3.2,1,5.7,1c5.8,0,9.7-4.2,9.7-11.6
				C173,18.7,169.9,15.3,165.1,15.3z"/>
			<path class="st0" d="M208,16c-2.4-0.9-5-1.4-8-1.4c-4.8,0-6.5,1.4-6.5,3.2c0,1.6,0.8,2.7,4.5,3.9l3.9,1.6
				c6.3,2.3,8.5,5.2,8.5,9.9c0,5.8-5.4,9.6-12.7,9.6c-5.8,0-9.3-0.9-12.4-2.5l1.6-5.2c2.9,1.6,6.5,2.5,10,2.5c4.5,0,6.3-1.6,6.3-3.7
				c0-1.9-0.9-3.1-5.4-4.8l-3.9-1.5c-5-1.7-7.6-4.5-7.6-9.1c0-5.2,4.8-9.2,13.3-9.2c4.1,0,7,0.4,10,1.5L208,16z"/>
			<path class="st0" d="M227.1,15.3c0,6.2-0.3,12.7,0.1,17.1c0.3,3.1,2.5,4.5,4.7,4.5c2.3,0,3.9-0.4,5.5-1.4l1.6,4.5
				c-2.4,1.7-5.9,2.7-9.8,2.7c-5.6,0-9.8-3.8-9.8-10.9c0-4.8,0.3-11.2,0.3-16.6h-5.3V10h5.4c0-3.1,0-5.2-0.1-8.1l8.1-1.7
				c-0.4,3.4-0.5,6.8-0.5,9.9h10.1v5.3H227.1z"/>
			<path class="st0" d="M260.7,37c3.8,0,7.5-1.2,10-3.2l1.8,5c-3.6,2.7-7.7,4-13.4,4c-9.6,0-17-6.1-17-17.2c0-9.9,6.5-16.3,16-16.3
				c8.4,0,14.4,5.3,14.4,15.1c0,1,0,1.7-0.1,2.7h-22.7C250.3,33.8,254.4,37,260.7,37z M249.7,22.3h15.4c-0.5-5.8-3-8.3-7.6-8.3
				C252.9,14.1,250.1,17.3,249.7,22.3z"/>
			<path class="st0" d="M296.1,9.2c1.7,0,2.7,0.1,3.7,0.6l-2.4,8.1c-1.2-0.4-2.1-0.6-3.5-0.6c-2.5,0-4.8,1.2-6.7,4.1
				c-0.2,2.3-0.3,5.2-0.3,9c0,3.4,0.1,7.4,0.3,11.5H279c0.3-6,0.4-9.8,0.4-15.9c0-6.6-0.1-9.9-0.4-16.2h7.1l0.9,6.7
				C289.2,11.6,292.8,9.2,296.1,9.2z"/>
		</g>
		<g>
			<path class="st1" d="M39.4,26.2c-5.1,0.4-19,1.3-19,1.3s0.5-1.2,0.5-2.6c0-2-0.1-17.1-0.1-17.1s-0.2-2,0.8-3.8h-9.4
				c0,0-9.5,0-10,8.3C1.7,20.7,0,44.1,0,44.1s1.9-0.9,3.5-1.2c0.3-0.1,0.8-0.1,2.1-0.1c6.2-0.1,23.7,0,25.7,0c1.7,0,10-0.1,10.7-9.8
				c0.1-2.1,0.3-4.8,0.4-7.8C41.6,25.7,40.7,26.1,39.4,26.2z"/>
			<path class="st2" d="M44.9,2.4c0,2,0.2,11.7,0,13.8c-0.1,0.8,0,4.8-4.1,5.1c-4.2,0.3-15.3,1.1-15.3,1.1s0.3-0.5,0.3-1.9
				c0-1.5,0-14,0-14s-0.5-5,4.9-5.4C36.8,0.7,45.3,0,45.3,0S44.9,1.7,44.9,2.4z"/>
		</g>
	</g>
	<g>
		<path class="st0" d="M313,22.7h16.7V9.5h3.6V42h-3.6V26.1H313V42h-3.6V9.5h3.6V22.7z"/>
		<path class="st0" d="M345.2,29.5c0,2.7,0,5.7,2.6,7.9c1.3,1.1,3.6,1.8,5.4,1.8c1.8,0,4-0.7,5.4-1.8c2.6-2.2,2.6-5.2,2.6-7.9V9.5
			h3.6v20.9c0,2.7-0.3,5.4-2,7.8c-1.9,2.7-5.4,4.4-9.5,4.4s-7.5-1.7-9.5-4.4c-1.8-2.4-2-5.1-2-7.8V9.5h3.6V29.5z"/>
		<path class="st0" d="M378.9,9.5c1.8,0,5.1,0.1,7.5,2c1,0.8,2.9,2.8,2.9,6.7c0,1.6-0.3,4.4-3.2,6.4c4.5,1.1,6.2,5.1,6.2,8.2
			s-1.6,5.6-3.3,7c-2.6,2-5.6,2.1-7.8,2.1h-8.1V9.5H378.9z M376.7,23.8h2.7c1.9,0,6.4-0.4,6.4-5.4c0-5.4-5.3-5.5-6.3-5.5h-2.8V23.8z
			 M376.7,38.6h4.1c2.1,0,4.1-0.1,5.7-1.4c1.3-0.9,2.1-2.5,2.1-4.5c0-2.6-1.5-4.1-2.8-4.8c-1.2-0.7-2.9-1-5.5-1h-3.7V38.6z"/>
	</g>
</g>
</svg>
