<?xml version="1.0" encoding="utf-8"?>
<!-- Generator: Adobe Illustrator 22.0.0, SVG Export Plug-In . SVG Version: 6.00 Build 0)  -->
<svg version="1.1" id="Layer_1" xmlns="http://www.w3.org/2000/svg" xmlns:xlink="http://www.w3.org/1999/xlink" x="0px" y="0px"
	 viewBox="0 0 595.3 595.3" style="enable-background:new 0 0 595.3 595.3;" xml:space="preserve">
<style type="text/css">
	.st0{fill:#8DC63F;}
	.st1{fill:#009444;}
</style>
<g>
	<path class="st0" d="M154.7,355.6c-15.6,0-31.5-0.9-46.7-2.7c-10.6,59.3-4.4,126.8-0.9,152.8c23.1-3.8,76-14,123.4-33.7
		c-1.5-11.2-2.3-22.8-2.3-34.2c0-33.6,6.8-68.3,19.8-93.6C220.5,351.7,187.1,355.6,154.7,355.6z"/>
	<path class="st1" d="M297.6,268.7c2.3,0,4.7-0.6,7.2-1.8c1.7-1.2,3.4-2.3,5.3-3.4c16.8-13.3,33.9-51.4,33.9-106.6
		C344.1,87.6,317,45,297.6,45c-19.4,0-46.4,42.6-46.4,111.9c0,55.2,17.2,93.3,33.9,106.6c1.9,1.1,3.6,2.3,5.3,3.4
		C292.9,268.1,295.3,268.7,297.6,268.7z"/>
	<path class="st0" d="M246.7,248.2c-12.3-25.1-18.7-58.8-18.7-91.4c0-11.1,0.8-22.4,2.2-33.4C182.9,103.7,130.1,93.6,107,89.8
		c-3.5,25.6-9.4,91.4,0.5,150.1c15.4-1.8,31.4-2.7,47.2-2.7C186.7,237.1,219.6,240.9,246.7,248.2z"/>
	<path class="st0" d="M343.4,343c15.6,29.1,23.8,69,23.8,94.8c0,8.5-0.4,17-1.3,25.5c49.4,22.1,107,33.3,131.5,37.3
		c3.4-25.5,9.4-90.5-0.3-148.9c-18.2,2.6-37.5,4-56.6,4C406.5,355.6,371.5,351.3,343.4,343z"/>
	<path class="st0" d="M440.6,237.1c19.2,0,38.6,1.4,57,4c9-57.7,3.2-121.1-0.1-146.2c-24.5,4-82.1,15.1-131.4,37.2
		c0.8,8.2,1.2,16.5,1.2,24.7c0,32.6-6.4,66.3-18.7,91.4C375.7,240.9,408.6,237.1,440.6,237.1z"/>
	<path class="st1" d="M572,296.3c0-16.5-50-39.5-131.4-39.5c-54.3,0-94.7,10.3-115.5,22c-2.2,1.7-4.5,3.2-6.9,4.4
		c-5.9,4.5-9.1,9-9.1,13.1c0,16.5,50,39.5,131.4,39.5C522,335.9,572,312.8,572,296.3z"/>
	<path class="st1" d="M23.3,296.3c0,16.5,50,39.5,131.4,39.5c81.4,0,131.4-23,131.4-39.5c0-4.1-3.1-8.6-9.1-13.1
		c-2.4-1.3-4.7-2.7-6.9-4.4c-20.8-11.7-61.1-22-115.5-22C73.3,256.8,23.3,279.8,23.3,296.3z"/>
	<ellipse class="st1" cx="297.6" cy="437.8" rx="46.4" ry="111.9"/>
</g>
</svg>
